<svg width="19" height="17" viewBox="0 0 19 17" fill="none" xmlns="http://www.w3.org/2000/svg">
<path fill-rule="evenodd" clip-rule="evenodd" d="M7.50597 16.8693C6.40622 16.495 5.65399 15.287 5.89844 14.1241L6.34426 11.2631C6.36126 11.1378 6.32456 11.0688 6.29218 11.0319C6.2545 10.9892 6.19298 10.9564 6.11213 10.9564L2.51467 10.9564C1.66891 10.9564 0.907057 10.6274 0.439927 10.0047C-0.0334988 9.37346 -0.127572 8.54204 0.171017 7.7073C0.279211 7.40476 0.386774 7.03477 0.512506 6.59526C0.521859 6.56243 0.531303 6.52925 0.540926 6.49579C0.657304 6.08829 0.787262 5.63354 0.939435 5.15868C1.26887 4.13078 1.71217 2.97672 2.39398 1.89363C3.01589 0.905579 3.83332 0.000132108 5.28472 0.000132108H14.2958L14.2963 1.35276L5.28472 1.35276C4.54625 1.35276 4.08173 1.74664 3.53482 2.61548C2.93944 3.56132 2.53743 4.594 2.22382 5.57249C2.07848 6.02589 1.95419 6.4609 1.837 6.8711C1.82774 6.90357 1.81847 6.93585 1.8093 6.96804C1.686 7.39926 1.56647 7.81262 1.44083 8.16385C1.27175 8.63664 1.35746 8.9775 1.51818 9.19167C1.6851 9.41431 2.01148 9.60376 2.51467 9.60376L6.11213 9.60376C7.05053 9.60376 7.82893 10.4076 7.67928 11.4579L7.67802 11.4666L7.22501 14.3735L7.22033 14.3945C7.12077 14.8436 7.43887 15.4211 7.94432 15.5901L7.95619 15.594L7.96788 15.5984C8.15045 15.6671 8.39031 15.6655 8.63593 15.5808C8.88613 15.4946 9.06664 15.3482 9.14839 15.2253L9.14983 15.2232L12.8372 9.72253L13.9568 10.477L10.2709 15.9756L10.2701 15.9767C9.99199 16.3943 9.54339 16.6984 9.07446 16.86C8.60409 17.0221 8.03947 17.0662 7.50597 16.8693Z" fill="#F8E29A"/>
<path fill-rule="evenodd" clip-rule="evenodd" d="M19 9.69387C19 10.5655 18.2954 11.272 17.4261 11.272H14.2784C13.4091 11.272 12.7045 10.5655 12.7045 9.69387L12.7045 6.49109e-05H17.4261C18.2954 6.49109e-05 19 0.706586 19 1.57813V9.69387ZM17.4261 9.91931C17.5503 9.91931 17.651 9.81841 17.651 9.69387V1.57813C17.651 1.45369 17.5503 1.35269 17.4261 1.35269H14.0535V9.69387C14.0535 9.81841 14.1542 9.91931 14.2784 9.91931H17.4261Z" fill="#F8E29A"/>
</svg>
