<svg width="25" height="25" viewBox="0 0 25 25" fill="none" xmlns="http://www.w3.org/2000/svg">
<path d="M24.2187 0H0.781247C0.574048 0 0.375334 0.090825 0.228822 0.252494C0.0823097 0.414164 0 0.633434 0 0.862069V2.30172C0.000146079 2.50533 0.0368077 2.7069 0.107872 2.8948C0.178937 3.0827 0.282999 3.25323 0.414061 3.39655L9.37497 13.431V22.2241L10.9375 22.8793V12.931C10.9381 12.8176 10.9183 12.7051 10.8795 12.6001C10.8406 12.495 10.7833 12.3995 10.7109 12.319L1.56249 2.23276V1.72414H23.4374V2.25L14.3203 12.319C14.2422 12.3966 14.1791 12.4908 14.1348 12.596C14.0905 12.7012 14.0659 12.8151 14.0625 12.931V24.319L15.6249 25V13.3621L24.5859 3.44828C24.719 3.30132 24.8243 3.12648 24.8954 2.93403C24.9665 2.74158 25.002 2.5354 24.9999 2.32759V0.862069C24.9999 0.633434 24.9176 0.414164 24.7711 0.252494C24.6246 0.090825 24.4259 0 24.2187 0Z" fill="black"/>
</svg>
