<svg width="19" height="17" viewBox="0 0 19 17" fill="none" xmlns="http://www.w3.org/2000/svg">
<path fill-rule="evenodd" clip-rule="evenodd" d="M11.4941 0.130677C12.5938 0.504966 13.3461 1.71297 13.1016 2.87586L12.6558 5.73691C12.6388 5.86215 12.6755 5.93121 12.7079 5.96807C12.7456 6.01082 12.8071 6.04357 12.8879 6.04357H16.4854C17.3312 6.04357 18.093 6.37257 18.5601 6.99532C19.0336 7.62654 19.1276 8.45796 18.829 9.2927C18.7209 9.59524 18.6133 9.96523 18.4876 10.4047C18.4782 10.4376 18.4688 10.4708 18.4591 10.5042C18.3428 10.9117 18.2128 11.3665 18.0606 11.8413C17.7312 12.8692 17.2879 14.0233 16.6061 15.1064C15.9842 16.0944 15.1667 16.9999 13.7153 16.9999H4.70423L4.70374 15.6472H13.7153C14.4538 15.6472 14.9183 15.2534 15.4652 14.3845C16.0606 13.4387 16.4626 12.406 16.7762 11.4275C16.9216 10.9741 17.0459 10.5391 17.1631 10.1289C17.1723 10.0964 17.1816 10.0642 17.1908 10.032C17.3141 9.60074 17.4336 9.18738 17.5592 8.83615C17.7283 8.36336 17.6426 8.0225 17.4819 7.80833C17.315 7.58569 16.9886 7.39624 16.4854 7.39624H12.8879C11.9495 7.39624 11.1711 6.59237 11.3208 5.54213L11.322 5.53337L11.7751 2.62649L11.7797 2.60547C11.8793 2.15638 11.5612 1.57888 11.0557 1.40993L11.0439 1.40598L11.0322 1.40158C10.8496 1.33294 10.6097 1.33452 10.3641 1.41919C10.1139 1.50541 9.93343 1.65177 9.85167 1.77471L9.85023 1.77683L6.16286 7.27747L5.04322 6.52295L8.72918 1.02441L8.72999 1.02326C9.00807 0.605736 9.45667 0.30163 9.9256 0.140028C10.396 -0.0220977 10.9606 -0.0661663 11.4941 0.130677Z" fill="#F8E29A"/>
<path fill-rule="evenodd" clip-rule="evenodd" d="M0 7.30613C0 6.43455 0.704661 5.72803 1.57389 5.72803H4.72167C5.5909 5.72803 6.29556 6.43455 6.29556 7.30613V16.9999H1.57389C0.704661 16.9999 0 16.2934 0 15.4219V7.30613ZM1.57389 7.08069C1.44971 7.08069 1.34905 7.18159 1.34905 7.30613V15.4219C1.34905 15.5463 1.44971 15.6473 1.57389 15.6473H4.94651V7.30613C4.94651 7.18159 4.84584 7.08069 4.72167 7.08069H1.57389Z" fill="#F8E29A"/>
</svg>
