<svg xmlns="http://www.w3.org/2000/svg" xmlns:xlink="http://www.w3.org/1999/xlink" viewBox="0 0 2053.98 1272.39"><defs><style>.cls-1{fill:url(#Безымянный_градиент_6);}.cls-2{fill:url(#Безымянный_градиент_6-2);}.cls-3{fill:url(#Безымянный_градиент_6-3);}.cls-4{fill:url(#Безымянный_градиент_6-4);}.cls-5{fill:url(#Безымянный_градиент_6-5);}.cls-6{fill:#fff;}.cls-7{fill:#2b2b2b;}.cls-8{fill:url(#Безымянный_градиент_6-6);}.cls-9{fill:#0d4e89;}.cls-10{fill:none;stroke:#000;stroke-miterlimit:10;}</style><linearGradient id="Безымянный_градиент_6" x1="604.64" y1="1143.8" x2="604.64" y2="1109.02" gradientUnits="userSpaceOnUse"><stop offset="0.03" stop-color="#fff"/><stop offset="0.93" stop-color="#94cff2"/></linearGradient><linearGradient id="Безымянный_градиент_6-2" x1="820.18" y1="1257.5" x2="820.18" y2="818.94" xlink:href="#Безымянный_градиент_6"/><linearGradient id="Безымянный_градиент_6-3" x1="1032.55" y1="1184.71" x2="1032.55" y2="881.99" xlink:href="#Безымянный_градиент_6"/><linearGradient id="Безымянный_градиент_6-4" x1="1235.84" y1="1078.17" x2="1235.84" y2="811.67" xlink:href="#Безымянный_градиент_6"/><linearGradient id="Безымянный_градиент_6-5" x1="989.55" y1="924.08" x2="989.55" y2="-177.67" xlink:href="#Безымянный_градиент_6"/><linearGradient id="Безымянный_градиент_6-6" x1="1038.08" y1="675.3" x2="1038.08" y2="460.3" xlink:href="#Безымянный_градиент_6"/></defs><g id="Слой_2" data-name="Слой 2"><g id="Слой_1-2" data-name="Слой 1"><path class="cls-1" d="M570.31,1114.63c31.41,15.92,58.37,28.17,68.67,29.17,0,0-13.85-.55-38.44-4.24Q585,1127.55,570.31,1114.63Z"/><path class="cls-2" d="M769,1042.8s216.83,126.44,465.48,180.67a630.72,630.72,0,0,1-107.76,34c-137-22-312.37-72.3-526.07-175.65,0,0-48.78-33.35-122-66.65a635.43,635.43,0,0,1-72.7-125.54C483.18,904.72,606.39,943.69,769,1042.8Z"/><path class="cls-3" d="M669,930.81c3.15,1.37,349.74,151.87,727.1,194.67a636.32,636.32,0,0,1-84.18,59.23h0C1134.53,1149.66,921.55,1073,669,930.81Z"/><path class="cls-4" d="M1490.48,973.3c-19,11-152,33-152,33,26,8,158-11,158-11q-4.56,2.44-9.53,4.81,12.54-.08,24.73-.42a638.42,638.42,0,0,1-64.61,78.48c-91.67-7.27-155.34-22.87-155.34-22.87,95.21-6.78,189.21-52.24,194.94-55.06-71.84,34.09-202.19,55.06-202.19,55.06-102-5-400-100-400-100,310.4,1.08,548.75-51.68,702.73-100.65A633.45,633.45,0,0,1,1530.55,971Z"/><path class="cls-5" d="M1625.72,636.16q0,3.36,0,6.7-.08,7.8-.34,15.54-.36,10.5-1.06,20.9-2,29.26-6.51,57.77c-.43,2.64-.87,5.29-1.32,7.92q-5.39,31.23-13.75,61.36c-81.82,27.09-201.94,58.47-375.22,87.95l-516-92s336,98,439,101c0,0-129,28-404,19l-222-62,.17-.32L517,863.85l2.43,1.44c-1.21-.39-58-18.92-134-29q-4.65-14.07-8.67-28.42a641.94,641.94,0,0,1-16.09-268.75q4.42-28.87,11.4-56.88C441,205.26,691.28,0,989.56,0,1169,0,1331.1,74.3,1446.75,193.81q13.55,14,26.24,28.81a633.94,633.94,0,0,1,152.73,413.54Z"/><path class="cls-6" d="M956.48,494.3l-82,7c-21,0-80,8-80,8-18,6-155,7-155,7-49,11-161,12-161,12-12,0-76,10-76,10l-41.74.82q4.42-28.87,11.4-56.88c50.54,6.06,210.34,6.06,210.34,6.06C596.48,491.3,956.48,494.3,956.48,494.3Z"/><path class="cls-6" d="M1565.6,365.85c-35.17,1.5-141.92,5.2-231.34-.55,0,0-342.78-15-503.78-9L623,354.88s28.5-4.58,101.5-9.58c0,0,58.15-1.79,80.53-7.06,1.28-.3,2.44-.62,3.47-.94,19-6,121-10,165-8,0,0,226-3,320-19,0,0,64-4,100-10,0,0,54.92-5.23,132.2-6.74A633.29,633.29,0,0,1,1565.6,365.85Z"/><path class="cls-6" d="M1473,222.62c-85.52-1.84-173.85-2.62-235.51-.32L1030,220.88s28.5-4.58,101.5-9.58c0,0,58.15-1.79,80.53-7.06,1.28-.3,2.44-.62,3.47-.94,19-6,121-10,165-8,0,0,27-.36,66.27-1.49Q1460.3,207.8,1473,222.62Z"/><path class="cls-7" d="M1762.48,734.3s-36.2,31.13-159.78,72.05c-81.82,27.09-201.94,58.47-375.22,87.95l-516-92s336,98,439,101c0,0-129,28-404,19l-222-62,.17-.32c2.49-4.68,32.92-59.58,101.83-79.68,0,0-46-33-35-62,0,0-15-29,88-26l162,23-30,68,23-7.11s40-90.89,55-98.89l-87-33s-57-31-23-90l23.35-46.1,7.77-15.35,46.88-92.55s10.91-31.65,44-45.36c11.71-4.86,26.21-7.47,44-5.64,0,0,11.34-8.82,10.51-20.46a19,19,0,0,0-3.51-9.54s-28-63,40-85c0,0,25-5,54,12,0,0,16,17,65,15,0,0-7,19-45,20,0,0-11,2-1,10,0,0,4,5,0,10,0,0-13,10-7,19a50.71,50.71,0,0,1,5.64,6.76,7,7,0,0,1,1.36,3.24s1,6-11,6c0,0-8.82,3.78-12,19.85a67.06,67.06,0,0,0-1,15.15s-4,4-13,0c0,0-23-12-33,0,0,0-8,8-7,19,0,0-9,53,90,72,0,0,51,1,60,11,0,0,15,15,22,24,0,0,59,52,88,39,0,0,10-7-12-18,0,0,55-4,75,38,0,0-45-12-63,2,0,0-13,6,0,11,0,0,124,4,184,14,0,0,81,25,18-8,0,0-26-19,74,18,0,0,76.88,32.86,101.2,49.56,5.69,3.9,8.5,6.92,6.8,8.44,0,0,2.15,4.29-7.14,7.1-7.48,2.27-22.4,3.58-51.86.9,0,0-7,3,0,7,0,0,12.23,8.89,50.8,13a414.8,414.8,0,0,0,49.2,2V667.8s75,54.5,78,59.5C1751.48,727.3,1754.48,732.3,1762.48,734.3Z"/><path class="cls-7" d="M1273.48,516.3s38,10,47,39l87,7s-36-38-93-48Z"/><path class="cls-8" d="M1183.48,675.3s-46-18-84-23c0,0-28,6-48,22,0,0,23-38-14-65,0,0-71-45-141-50,0,0-7,2-2-18l15-45s11-25,19-36c0,0,26,38,92,40,0,0,16,2,38-4,0,0,8,20,34,21,0,0,13,3,24-6l58,50s-97-2-100,22c0,0-10,24,25,61C1099.48,644.3,1148.48,655.3,1183.48,675.3Z"/><path class="cls-6" d="M1636.48,763.3s-158-157-342-172C1294.48,591.3,1522.48,586.3,1636.48,763.3Z"/><path class="cls-7" d="M1789.48,773.3c-7,35-43,64-43,64-24,26-41,15-41,15-10-9-22,17-22,17-55,92-140,101-140,101l-12.93.73-40.07,2.27c-19,11-152,33-152,33,26,8,158-11,158-11q-4.56,2.44-9.53,4.81l-.07,0-.21.1c-71.84,34.09-202.19,55.06-202.19,55.06-102-5-400-100-400-100,310.4,1.08,548.75-51.68,702.73-100.65C1719.46,812.58,1789.48,773.3,1789.48,773.3Z"/><path class="cls-9" d="M2037.48,720.3c-19,374-492.5,361.5-492.5,361.5-34.81.25-67.86-1.24-97.91-3.63-91.67-7.27-155.34-22.87-155.34-22.87,95.21-6.78,189.21-52.24,194.94-55.06l.21-.1.07,0q12.54-.08,24.73-.42C1936.78,987.41,2037.48,720.3,2037.48,720.3Z"/><path class="cls-9" d="M2054,1022.8s-212.17,266.62-742.06,161.91h0c-177.38-35-390.36-111.7-642.91-253.9,3.15,1.37,349.74,151.87,727.1,194.67C1628,1151.78,1871.43,1137.41,2054,1022.8Z"/><path class="cls-9" d="M1494,1245.8s-122.41,51-367.28,11.7c-137-22-312.37-72.3-526.07-175.65,0,0-48.78-33.35-122-66.65C350.51,957,147.6,898.92,0,1019.78c1.53-2.1,100.64-136,312-139,0,0,32.41-3.14,93.92,8.86,77.28,15.06,200.49,54,363.08,153.14,0,0,216.83,126.44,465.48,180.67C1319.71,1242.07,1408.7,1252.18,1494,1245.8Z"/><path class="cls-9" d="M639,1143.8s-13.85-.55-38.44-4.24c-49.3-7.4-141.81-27.38-252.56-80.76,0,0-123-77-294-40,0,0,55-43,165-37,0,0,97-3,207,54,0,0,81.17,46.83,144.33,78.83C601.72,1130.55,628.68,1142.8,639,1143.8Z"/><path class="cls-9" d="M519.46,865.29c-1.21-.39-58-18.92-134-29-75.42-10-169.69-11.7-247,21,1.15-1,89.38-79.72,238.34-49.42,42.08,8.56,89,25.82,140.2,56Z"/><polyline class="cls-10" points="517.03 863.85 524.65 859.98 526.98 858.8"/></g></g></svg>