<svg width="25" height="25" viewBox="0 0 25 25" fill="none" xmlns="http://www.w3.org/2000/svg">
<mask id="path-1-inside-1_6_17" fill="white">
<path d="M25 23.6924L18.0165 16.7088C19.6946 14.6942 20.5314 12.1102 20.3528 9.49432C20.1742 6.87845 18.994 4.43213 17.0577 2.66425C15.1214 0.896377 12.578 -0.056934 9.95676 0.00263234C7.33548 0.0621987 4.83807 1.13006 2.98406 2.98406C1.13006 4.83807 0.0621987 7.33548 0.00263234 9.95676C-0.056934 12.578 0.896377 15.1214 2.66425 17.0577C4.43213 18.994 6.87845 20.1742 9.49432 20.3528C12.1102 20.5314 14.6942 19.6946 16.7088 18.0165L23.6924 25L25 23.6924ZM1.88216 10.2046C1.88216 8.55856 2.37026 6.9495 3.28474 5.58089C4.19922 4.21227 5.499 3.14557 7.01973 2.51566C8.54045 1.88576 10.2138 1.72095 11.8282 2.04207C13.4426 2.36319 14.9255 3.15583 16.0894 4.31974C17.2533 5.48365 18.046 6.96656 18.3671 8.58096C18.6882 10.1953 18.5234 11.8687 17.8935 13.3894C17.2636 14.9102 16.1969 16.2099 14.8283 17.1244C13.4597 18.0389 11.8506 18.527 10.2046 18.527C7.99809 18.5246 5.88267 17.6469 4.32244 16.0867C2.76221 14.5265 1.8846 12.4111 1.88216 10.2046Z"/>
</mask>
<path d="M25 23.6924L27.1213 25.8137L29.2426 23.6924L27.1213 21.571L25 23.6924ZM18.0165 16.7088L15.7114 14.7888L13.9584 16.8934L15.8952 18.8302L18.0165 16.7088ZM16.7088 18.0165L18.8302 15.8952L16.8934 13.9584L14.7888 15.7114L16.7088 18.0165ZM23.6924 25L21.571 27.1213L23.6924 29.2426L25.8137 27.1213L23.6924 25ZM1.88216 10.2046H-1.11785L-1.11784 10.2079L1.88216 10.2046ZM10.2046 18.527L10.2013 21.527H10.2046V18.527ZM25 23.6924L27.1213 21.571L20.1378 14.5875L18.0165 16.7088L15.8952 18.8302L22.8787 25.8137L25 23.6924ZM18.0165 16.7088L20.3216 18.6289C22.4938 16.021 23.577 12.6761 23.3458 9.29L20.3528 9.49432L17.3597 9.69865C17.4857 11.5443 16.8953 13.3674 15.7114 14.7888L18.0165 16.7088ZM20.3528 9.49432L23.3458 9.29C23.1147 5.90386 21.5869 2.7372 19.0805 0.448761L17.0577 2.66425L15.0349 4.87974C16.4011 6.12705 17.2338 7.85304 17.3597 9.69865L20.3528 9.49432ZM17.0577 2.66425L19.0805 0.448761C16.574 -1.83968 13.2818 -3.0737 9.88861 -2.99659L9.95676 0.00263234L10.0249 3.00186C11.8743 2.95983 13.6688 3.63243 15.0349 4.87974L17.0577 2.66425ZM9.95676 0.00263234L9.88861 -2.99659C6.49547 -2.91949 3.26268 -1.53719 0.862743 0.862743L2.98406 2.98406L5.10538 5.10538C6.41346 3.7973 8.17549 3.04388 10.0249 3.00186L9.95676 0.00263234ZM2.98406 2.98406L0.862743 0.862743C-1.53719 3.26268 -2.91949 6.49547 -2.99659 9.88861L0.00263234 9.95676L3.00186 10.0249C3.04388 8.17549 3.7973 6.41346 5.10538 5.10538L2.98406 2.98406ZM0.00263234 9.95676L-2.99659 9.88861C-3.0737 13.2818 -1.83968 16.574 0.448761 19.0805L2.66425 17.0577L4.87974 15.0349C3.63243 13.6688 2.95983 11.8743 3.00186 10.0249L0.00263234 9.95676ZM2.66425 17.0577L0.448761 19.0805C2.7372 21.5869 5.90386 23.1147 9.29 23.3458L9.49432 20.3528L9.69865 17.3597C7.85304 17.2338 6.12705 16.4011 4.87974 15.0349L2.66425 17.0577ZM9.49432 20.3528L9.29 23.3458C12.6761 23.577 16.021 22.4938 18.6289 20.3216L16.7088 18.0165L14.7888 15.7114C13.3674 16.8953 11.5443 17.4857 9.69865 17.3597L9.49432 20.3528ZM16.7088 18.0165L14.5875 20.1378L21.571 27.1213L23.6924 25L25.8137 22.8787L18.8302 15.8952L16.7088 18.0165ZM23.6924 25L25.8137 27.1213L27.1213 25.8137L25 23.6924L22.8787 21.571L21.571 22.8787L23.6924 25ZM1.88216 10.2046H4.88216C4.88216 9.1519 5.19431 8.12287 5.77915 7.2476L3.28474 5.58089L0.790329 3.91418C-0.453795 5.77614 -1.11784 7.96522 -1.11784 10.2046H1.88216ZM3.28474 5.58089L5.77915 7.2476C6.36398 6.37233 7.19523 5.69014 8.16778 5.2873L7.01973 2.51566L5.87168 -0.255976C3.80277 0.600992 2.03445 2.05222 0.790329 3.91418L3.28474 5.58089ZM7.01973 2.51566L8.16778 5.2873C9.14032 4.88446 10.2105 4.77906 11.2429 4.98442L11.8282 2.04207L12.4135 -0.900287C10.2171 -1.33717 7.94058 -1.11294 5.87168 -0.255976L7.01973 2.51566ZM11.8282 2.04207L11.2429 4.98442C12.2754 5.18979 13.2237 5.6967 13.9681 6.44106L16.0894 4.31974L18.2107 2.19842C16.6273 0.614947 14.6098 -0.463409 12.4135 -0.900287L11.8282 2.04207ZM16.0894 4.31974L13.9681 6.44106C14.7125 7.18541 15.2194 8.13378 15.4247 9.16623L18.3671 8.58096L21.3094 7.99568C20.8726 5.79935 19.7942 3.78189 18.2107 2.19842L16.0894 4.31974ZM18.3671 8.58096L15.4247 9.16623C15.6301 10.1987 15.5247 11.2688 15.1219 12.2414L17.8935 13.3894L20.6651 14.5375C21.5221 12.4686 21.7463 10.192 21.3094 7.99568L18.3671 8.58096ZM17.8935 13.3894L15.1219 12.2414C14.719 13.2139 14.0368 14.0452 13.1616 14.63L14.8283 17.1244L16.495 19.6188C18.3569 18.3747 19.8082 16.6064 20.6651 14.5375L17.8935 13.3894ZM14.8283 17.1244L13.1616 14.63C12.2863 15.2148 11.2573 15.527 10.2046 15.527V18.527V21.527C12.4439 21.527 14.633 20.863 16.495 19.6188L14.8283 17.1244ZM10.2046 18.527L10.2079 15.527C8.79591 15.5254 7.44219 14.9638 6.44376 13.9654L4.32244 16.0867L2.20112 18.208C4.32314 20.3301 7.20026 21.5237 10.2013 21.527L10.2046 18.527ZM4.32244 16.0867L6.44376 13.9654C5.44533 12.967 4.88372 11.6132 4.88215 10.2013L1.88216 10.2046L-1.11784 10.2079C-1.11451 13.2089 0.0790993 16.086 2.20112 18.208L4.32244 16.0867Z" fill="#2B2B2B" mask="url(#path-1-inside-1_6_17)"/>
</svg>
