<svg width="25" height="25" viewBox="0 0 25 25" fill="none" xmlns="http://www.w3.org/2000/svg">
<path d="M9.95673 0.00262737C12.5779 -0.0568686 15.1211 0.896025 17.0573 2.66376C18.9936 4.43159 20.1736 6.87804 20.3522 9.49384C20.5308 12.1097 19.6944 14.6941 18.0163 16.7087L24.9997 23.6921L23.6921 24.9997L16.7087 18.0163C14.6941 19.6944 12.1097 20.5308 9.49384 20.3522C6.87804 20.1736 4.43159 18.9936 2.66376 17.0573C0.896025 15.1211 -0.0568686 12.5779 0.00262737 9.95673C0.0621937 7.33544 1.13007 4.83808 2.98407 2.98407C4.83808 1.13007 7.33544 0.0621937 9.95673 0.00262737ZM11.8278 2.04169C10.2135 1.72059 8.53992 1.88543 7.01923 2.51532C5.4986 3.14522 4.1993 4.21222 3.28485 5.58075C2.37046 6.94924 1.88163 8.55795 1.88153 10.2038C1.88398 12.4103 2.76174 14.5264 4.32196 16.0866C5.88208 17.6467 7.99748 18.5245 10.2038 18.527C11.8498 18.527 13.4592 18.0382 14.8278 17.1237C16.1963 16.2093 17.2634 14.91 17.8933 13.3893C18.5231 11.8687 18.688 10.1951 18.3669 8.58075C18.0458 6.96637 17.2534 5.48294 16.0895 4.31903C14.9256 3.15512 13.4422 2.36281 11.8278 2.04169Z" fill="#2B2B2B"/>
</svg>
